<svg width="47" height="47" viewBox="0 0 47 47" fill="none" xmlns="http://www.w3.org/2000/svg">
<path d="M40.75 31.6699V16.3282C40.7494 15.8261 40.6173 15.3329 40.3668 14.8976C40.1163 14.4624 39.7562 14.1004 39.3224 13.8476L25.6661 5.90004C25.0082 5.51699 24.2604 5.31519 23.4991 5.31519C22.7378 5.31519 21.99 5.51699 21.3321 5.90004L7.67762 13.8476C7.24375 14.1004 6.88367 14.4624 6.6332 14.8976C6.38273 15.3329 6.25061 15.8261 6.25 16.3282V31.6699C6.2503 32.1724 6.38227 32.666 6.63275 33.1015C6.88324 33.5371 7.24349 33.8994 7.67762 34.1523L21.3339 42.0999C21.992 42.4824 22.7397 42.6839 23.5009 42.6839C24.2621 42.6839 25.0098 42.4824 25.6679 42.0999L39.3242 34.1523C39.758 33.8991 40.1179 33.5367 40.368 33.1012C40.6182 32.6657 40.7499 32.1722 40.75 31.6699Z" stroke="black" stroke-width="2" stroke-linecap="round" stroke-linejoin="round"/>
<path d="M6.69922 14.835L23.5 24.7178L40.3008 14.835" stroke="black" stroke-width="2" stroke-linecap="round" stroke-linejoin="round"/>
<path d="M23.5 42.6865V24.7178" stroke="black" stroke-width="2" stroke-linecap="round" stroke-linejoin="round"/>
<circle cx="33.5" cy="12.5" r="12.5" fill="#1F86FF"/>
<path d="M33.5346 17.1293C32.9252 17.1293 32.382 17.0246 31.905 16.8153C31.431 16.6061 31.054 16.3152 30.774 15.9428C30.497 15.5674 30.3462 15.1319 30.3216 14.6364H31.4849C31.5095 14.9411 31.6142 15.2042 31.7988 15.4258C31.9835 15.6443 32.2251 15.8136 32.5236 15.9336C32.8221 16.0536 33.153 16.1136 33.5162 16.1136C33.9224 16.1136 34.2825 16.0429 34.5964 15.9013C34.9103 15.7597 35.1565 15.5627 35.335 15.3104C35.5136 15.058 35.6028 14.7656 35.6028 14.4332C35.6028 14.0855 35.5166 13.7792 35.3443 13.5146C35.1719 13.2468 34.9196 13.0375 34.5872 12.8867C34.2548 12.7359 33.8485 12.6605 33.3684 12.6605H32.6113V11.6449H33.3684C33.7439 11.6449 34.0732 11.5772 34.3564 11.4418C34.6426 11.3063 34.8657 11.1155 35.0257 10.8693C35.1889 10.6231 35.2704 10.3338 35.2704 10.0014C35.2704 9.68134 35.1996 9.40282 35.0581 9.16584C34.9165 8.92886 34.7164 8.7442 34.4579 8.61186C34.2025 8.47952 33.9009 8.41335 33.5531 8.41335C33.2269 8.41335 32.9191 8.47337 32.6298 8.59339C32.3436 8.71035 32.1097 8.88116 31.9281 9.10582C31.7465 9.32741 31.648 9.59517 31.6326 9.90909H30.5247C30.5431 9.41359 30.6924 8.97964 30.9725 8.60724C31.2525 8.23177 31.6188 7.93939 32.0712 7.73011C32.5267 7.52083 33.0268 7.41619 33.5716 7.41619C34.1563 7.41619 34.658 7.53468 35.0765 7.77166C35.4951 8.00556 35.8167 8.31487 36.0414 8.69957C36.266 9.08428 36.3784 9.49976 36.3784 9.94602C36.3784 10.4785 36.2383 10.9324 35.9583 11.3079C35.6813 11.6834 35.3043 11.9434 34.8272 12.0881V12.1619C35.4243 12.2604 35.8906 12.5143 36.226 12.9237C36.5615 13.3299 36.7292 13.8331 36.7292 14.4332C36.7292 14.9472 36.5892 15.4089 36.3091 15.8182C36.0321 16.2244 35.6536 16.5445 35.1735 16.7784C34.6934 17.0123 34.1471 17.1293 33.5346 17.1293Z" fill="white"/>
</svg>
