<svg width="34" height="34" viewBox="0 0 34 34" fill="none" xmlns="http://www.w3.org/2000/svg">
<g clip-path="url(#clip0_228_183)">
<path d="M14.2001 30.4357L3.41684 15.0357C3.22677 14.7642 3.29274 14.3901 3.56418 14.2L18.9642 3.41681C19.2357 3.22672 19.6098 3.29271 19.7999 3.56415L23.7002 9.13439C23.8903 9.40583 23.8243 9.77994 23.5529 9.97002L14.706 16.1646C14.4345 16.3547 14.3686 16.7288 14.5587 17.0003L20.7533 25.8471C20.9434 26.1186 20.8774 26.4927 20.6059 26.6828L15.0357 30.5831C14.7643 30.7732 14.3902 30.7072 14.2001 30.4357Z" stroke="#1F86FF" stroke-width="1.5" stroke-linecap="round" stroke-linejoin="round"/>
<path d="M19.1294 13.0673L17.4087 10.6099" stroke="#1F86FF" stroke-width="1.5" stroke-linecap="round" stroke-linejoin="round"/>
<path d="M14.2145 16.5087L12.4938 14.0513" stroke="#1F86FF" stroke-width="1.5" stroke-linecap="round" stroke-linejoin="round"/>
<path d="M17.656 21.4236L15.1985 23.1443" stroke="#1F86FF" stroke-width="1.5" stroke-linecap="round" stroke-linejoin="round"/>
<path d="M14.2145 16.5088L11.7571 18.2295" stroke="#1F86FF" stroke-width="1.5" stroke-linecap="round" stroke-linejoin="round"/>
</g>
<defs>
<clipPath id="clip0_228_183">
<rect width="24" height="24" fill="white" transform="translate(0.287231 14.053) rotate(-35)"/>
</clipPath>
</defs>
</svg>
