<svg width="26" height="32" viewBox="0 0 26 32" fill="none" xmlns="http://www.w3.org/2000/svg">
<path fill-rule="evenodd" clip-rule="evenodd" d="M1.84718 27.8973H24.1528C25.1635 27.8973 26 27.0768 26 26.0854V20.6153C26 19.6238 25.1635 18.8033 24.1528 18.8033H22.7239V7.93154C22.7239 7.07684 21.992 6.35889 21.1206 6.35889H4.87936C4.00804 6.35889 3.27614 7.07684 3.27614 7.93154V18.7691H1.84718C0.836461 18.7691 0 19.5897 0 20.5811V26.017C0 27.0768 0.836461 27.8973 1.84718 27.8973Z" fill="#F7D309"/>
<path fill-rule="evenodd" clip-rule="evenodd" d="M1.84718 27.8974H24.1528C25.1635 27.8974 26 27.0769 26 26.0854H0C0 27.0769 0.836461 27.8974 1.84718 27.8974Z" fill="#D9D9D9"/>
<path fill-rule="evenodd" clip-rule="evenodd" d="M1.84717 18.8034H3.27612V7.93162C3.27612 7.07692 4.00803 6.35897 4.87934 6.35897H21.0858C21.9571 6.35897 22.689 7.07692 22.689 7.93162V18.7692H24.1528V1.33333C24.1528 0.581196 23.5254 0 22.7935 0H3.24127C2.47451 0 1.88202 0.615384 1.88202 1.33333V18.8034H1.84717Z" fill="#D9D9D9"/>
<path fill-rule="evenodd" clip-rule="evenodd" d="M9.02686 6.39332V3.89759C9.02686 3.5899 9.27082 3.35059 9.5845 3.35059C9.89817 3.35059 10.1421 3.5899 10.1421 3.89759V6.39332H9.02686Z" fill="#002535"/>
<path fill-rule="evenodd" clip-rule="evenodd" d="M11.2922 6.39332V3.89759C11.2922 3.5899 11.5362 3.35059 11.8499 3.35059C12.1636 3.35059 12.4075 3.5899 12.4075 3.89759V6.39332H11.2922Z" fill="#002535"/>
<path fill-rule="evenodd" clip-rule="evenodd" d="M13.5925 6.39332V3.89759C13.5925 3.5899 13.8365 3.35059 14.1502 3.35059C14.4638 3.35059 14.7078 3.5899 14.7078 3.89759V6.39332H13.5925Z" fill="#002535"/>
<path fill-rule="evenodd" clip-rule="evenodd" d="M15.8579 6.39332V3.89759C15.8579 3.5899 16.1019 3.35059 16.4156 3.35059C16.7292 3.35059 16.9732 3.5899 16.9732 3.89759V6.39332H15.8579Z" fill="#002535"/>
<path fill-rule="evenodd" clip-rule="evenodd" d="M6.97053 8.4104H19.0295C19.9008 8.4104 20.6327 9.12835 20.6327 9.98305V17.2309C20.6327 18.0856 19.9008 18.8036 19.0295 18.8036H6.97053C6.09921 18.8036 5.36731 18.0856 5.36731 17.2309V9.98305C5.36731 9.12835 6.09921 8.4104 6.97053 8.4104Z" fill="url(#paint0_linear_231_266)"/>
<path d="M19.0295 8.88891H6.97049C6.65681 8.88891 6.37799 9.02566 6.20373 9.1966C5.99461 9.40172 5.89006 9.67523 5.89006 9.94873V17.1966C5.89006 17.5043 6.02947 17.7778 6.20373 17.9487C6.41285 18.1539 6.69167 18.2564 6.97049 18.2564H19.0295C19.3083 18.2564 19.5871 18.1539 19.7962 17.9487C19.7962 17.9487 19.7962 17.9487 19.8311 17.9145C20.0402 17.7094 20.1447 17.4359 20.1447 17.1624V9.98292C20.1447 9.67523 20.0053 9.40173 19.8311 9.23079C19.622 9.02566 19.3431 8.88891 19.0295 8.88891ZM6.97049 7.93164H19.0295C19.5871 7.93164 20.1099 8.17096 20.4933 8.54702C20.8767 8.92309 21.1206 9.43591 21.1206 9.98292V17.2308C21.1206 17.812 20.8767 18.3248 20.4933 18.6667L20.4584 18.7009C20.075 19.0428 19.5871 19.2821 19.0295 19.2821H6.97049C6.37799 19.2821 5.8552 19.0428 5.50668 18.6667C5.1233 18.2906 4.87933 17.7778 4.87933 17.2308V9.98292C4.87933 9.40173 5.1233 8.88891 5.50668 8.54702C5.8552 8.17096 6.37799 7.93164 6.97049 7.93164Z" fill="#D9D9D9"/>
<path fill-rule="evenodd" clip-rule="evenodd" d="M4.14747 21.231C5.01878 21.231 5.75068 21.9489 5.75068 22.8036C5.75068 23.6583 5.01878 24.3763 4.14747 24.3763C3.2413 24.4104 2.54425 23.6925 2.54425 22.8378C2.54425 21.9489 3.2413 21.231 4.14747 21.231Z" fill="#F7D309"/>
<path d="M4.14749 21.7437C3.83382 21.7437 3.555 21.8804 3.34588 22.0513C3.13677 22.2565 3.03221 22.53 3.03221 22.8377C3.03221 23.1454 3.17162 23.4189 3.34588 23.624C3.555 23.8291 3.83382 23.9317 4.14749 23.9317C4.46116 23.9317 4.73998 23.7949 4.9491 23.624C5.15821 23.4189 5.26277 23.1454 5.26277 22.8377C5.26277 22.53 5.12336 22.2565 4.9491 22.0513C4.73998 21.8462 4.46116 21.7437 4.14749 21.7437ZM4.14749 20.7522C4.73998 20.7522 5.26277 20.9915 5.64615 21.3676C6.02953 21.7436 6.2735 22.2565 6.2735 22.8377C6.2735 23.4189 6.02953 23.9317 5.64615 24.3078C5.26277 24.6838 4.73998 24.9231 4.14749 24.9231C3.555 24.9231 3.03221 24.6838 2.64883 24.3078C2.26545 23.9317 2.02148 23.4189 2.02148 22.8377C2.02148 22.2565 2.26545 21.7436 2.64883 21.3676C3.03221 20.9915 3.555 20.7522 4.14749 20.7522Z" fill="#D9D9D9"/>
<path fill-rule="evenodd" clip-rule="evenodd" d="M21.8525 21.231C22.7239 21.231 23.4558 21.9489 23.4558 22.8036C23.4558 23.6583 22.7239 24.3763 21.8525 24.3763C20.9812 24.3763 20.2493 23.6583 20.2493 22.8036C20.2493 21.9489 20.9812 21.231 21.8525 21.231Z" fill="#F7D309"/>
<path d="M21.8525 21.7437C21.5388 21.7437 21.26 21.8804 21.0509 22.0513C20.8418 22.2565 20.7372 22.53 20.7372 22.8377C20.7372 23.1454 20.8766 23.4189 21.0509 23.624C21.26 23.8291 21.5388 23.9317 21.8525 23.9317C22.1662 23.9317 22.445 23.7949 22.6541 23.624C22.8632 23.4189 22.9678 23.1454 22.9678 22.8377C22.9678 22.53 22.8284 22.2565 22.6541 22.0513C22.445 21.8462 22.1662 21.7437 21.8525 21.7437ZM21.8525 20.7522C22.445 20.7522 22.9678 20.9915 23.3512 21.3676C23.7345 21.7436 23.9785 22.2565 23.9785 22.8377C23.9785 23.4189 23.7345 23.9317 23.3512 24.3078C22.9678 24.6838 22.445 24.9231 21.8525 24.9231C21.26 24.9231 20.7372 24.6838 20.3538 24.3078C19.9705 23.9317 19.7265 23.4189 19.7265 22.8377C19.7265 22.2565 19.9705 21.7436 20.3538 21.3676C20.7721 20.9915 21.2949 20.7522 21.8525 20.7522Z" fill="#D9D9D9"/>
<path fill-rule="evenodd" clip-rule="evenodd" d="M1.84717 27.8975H7.73725V29.6411C7.73725 30.9402 6.65682 32 5.33242 32H4.25199C2.9276 32 1.84717 30.9402 1.84717 29.6411V27.8975Z" fill="#002535"/>
<path fill-rule="evenodd" clip-rule="evenodd" d="M18.2628 27.8975H24.1528V29.6411C24.1528 30.9402 23.0724 32 21.748 32H20.6676C19.3432 32 18.2628 30.9402 18.2628 29.6411V27.8975Z" fill="#002535"/>
<path fill-rule="evenodd" clip-rule="evenodd" d="M8.15548 21.231H17.8793C18.193 21.231 18.437 21.4703 18.437 21.778C18.437 22.0857 18.193 22.325 17.8793 22.325H8.15548C7.84181 22.325 7.59784 22.0857 7.59784 21.778C7.59784 21.5045 7.84181 21.231 8.15548 21.231Z" fill="#002535"/>
<path fill-rule="evenodd" clip-rule="evenodd" d="M8.15548 23.3162H17.8793C18.193 23.3162 18.437 23.5555 18.437 23.8632C18.437 24.1709 18.193 24.4102 17.8793 24.4102H8.15548C7.84181 24.4102 7.59784 24.1709 7.59784 23.8632C7.59784 23.5555 7.84181 23.3162 8.15548 23.3162Z" fill="#002535"/>
<path fill-rule="evenodd" clip-rule="evenodd" d="M1.91686 10.3933H2.12597C2.78817 10.3933 3.31096 10.9061 3.31096 11.5557V15.6583C3.31096 16.3078 2.78817 16.8207 2.12597 16.8207H1.91686C1.25466 16.8207 0.731873 16.3078 0.731873 15.6583V11.5215C0.731873 10.9061 1.25466 10.3933 1.91686 10.3933Z" fill="#002535"/>
<path fill-rule="evenodd" clip-rule="evenodd" d="M23.874 10.3933H24.0831C24.7453 10.3933 25.2681 10.9061 25.2681 11.5557V15.6583C25.2681 16.3078 24.7453 16.8207 24.0831 16.8207H23.874C23.2118 16.8207 22.689 16.3078 22.689 15.6583V11.5215C22.689 10.9061 23.2467 10.3933 23.874 10.3933Z" fill="#002535"/>
<defs>
<linearGradient id="paint0_linear_231_266" x1="13" y1="8.4104" x2="13" y2="18.8036" gradientUnits="userSpaceOnUse">
<stop stop-color="white"/>
<stop offset="0.635417" stop-color="#F3F3F3"/>
</linearGradient>
</defs>
</svg>
