<svg width="26" height="26" viewBox="0 0 26 26" fill="none" xmlns="http://www.w3.org/2000/svg">
<g clip-path="url(#clip0_288_281)">
<path d="M23.1345 4.49043L18.8012 0.157092C18.7506 0.10689 18.6905 0.0671721 18.6245 0.0402163C18.5585 0.0132605 18.4879 -0.000403097 18.4166 9.05357e-06H4.33325C3.90228 9.05357e-06 3.48895 0.171214 3.1842 0.475961C2.87946 0.780707 2.70825 1.19403 2.70825 1.62501V24.375C2.70825 24.806 2.87946 25.2193 3.1842 25.5241C3.48895 25.8288 3.90228 26 4.33325 26H21.6666C22.0976 26 22.5109 25.8288 22.8156 25.5241C23.1204 25.2193 23.2916 24.806 23.2916 24.375V4.87501C23.292 4.80372 23.2783 4.73306 23.2514 4.66706C23.2244 4.60106 23.1847 4.54104 23.1345 4.49043ZM18.9583 1.84709L21.4445 4.33334H19.4999C19.3563 4.33334 19.2185 4.27627 19.1169 4.17469C19.0153 4.07311 18.9583 3.93533 18.9583 3.79168V1.84709ZM22.2083 24.375C22.2083 24.5187 22.1512 24.6564 22.0496 24.758C21.948 24.8596 21.8102 24.9167 21.6666 24.9167H4.33325C4.18959 24.9167 4.05182 24.8596 3.95024 24.758C3.84865 24.6564 3.79159 24.5187 3.79159 24.375V1.62501C3.79159 1.48135 3.84865 1.34358 3.95024 1.24199C4.05182 1.14041 4.18959 1.08334 4.33325 1.08334H17.8749V3.79168C17.8749 4.22265 18.0461 4.63598 18.3509 4.94072C18.6556 5.24547 19.0689 5.41668 19.4999 5.41668H22.2083V24.375Z" fill="#1F86FF"/>
<path d="M19.5001 9.75H8.66675V10.8333H19.5001V9.75Z" fill="#1F86FF"/>
<path d="M19.5 13H6.5V14.0833H19.5V13Z" fill="#1F86FF"/>
<path d="M19.5 16.25H6.5V17.3333H19.5V16.25Z" fill="#1F86FF"/>
<path d="M15.1667 19.5H6.5V20.5833H15.1667V19.5Z" fill="#1F86FF"/>
<path d="M19.5001 19.5H18.4167V20.5833H19.5001V19.5Z" fill="#1F86FF"/>
<path d="M17.3333 19.5H16.25V20.5833H17.3333V19.5Z" fill="#1F86FF"/>
</g>
<defs>
<clipPath id="clip0_288_281">
<rect width="26" height="26" fill="white"/>
</clipPath>
</defs>
</svg>
