<svg viewBox="0 0 48 48" xml:space="preserve" xmlns="http://www.w3.org/2000/svg"><g fill="#3888ff" class="fill-241f20"><circle cx="23.968" cy="25.318" r="7.317"></circle><path d="M30.353 32.533a9.597 9.597 0 0 1-12.746.022c-4.432 2.419-7.46 7.271-7.46 12.867 0 .88.08 1.74.223 2.578h27.262c.144-.838.223-1.698.223-2.578-.001-5.612-3.048-10.479-7.502-12.889z"></path><path d="M43.89 28.38v-9.861c1.208-.913 2-2.347 2-3.978a5 5 0 0 0-5-5 4.95 4.95 0 0 0-2.565.729l-9.369-5.41C28.879 2.166 26.683 0 23.968 0a4.995 4.995 0 0 0-4.99 4.899L9.607 10.31a4.963 4.963 0 0 0-2.638-.768 5 5 0 0 0-5 5c0 1.697.85 3.19 2.142 4.094v9.744a4.98 4.98 0 0 0-2.071 4.036c0 2.762 2.238 5 5 5s5-2.238 5-5c0-2.539-1.899-4.613-4.35-4.935v-8.013c2.417-.352 4.279-2.413 4.279-4.927 0-.457-.081-.892-.196-1.312l8.489-4.901A4.966 4.966 0 0 0 23.968 10c1.49 0 2.812-.664 3.728-1.697l8.411 4.856a4.937 4.937 0 0 0-.218 1.382c0 2.563 1.937 4.652 4.422 4.942v7.998c-2.451.321-4.351 2.396-4.351 4.935 0 2.762 2.238 5 5 5s5-2.238 5-5a4.976 4.976 0 0 0-2.07-4.036z"></path></g></svg>