<svg width="37" height="32" viewBox="0 0 37 32" fill="none" xmlns="http://www.w3.org/2000/svg">
<path fill-rule="evenodd" clip-rule="evenodd" d="M3.70001 19.7249H18.3266L21.8242 15.3499H33.5602L31.1609 20.3249C31.132 20.4499 31.0453 20.5749 30.9875 20.6999L28.9352 24.9249H9.16329C6.01251 24.9249 3.41095 22.6999 3.41095 19.9499C3.43986 19.8249 3.55548 19.7249 3.70001 19.7249Z" fill="#2DB5AC"/>
<path fill-rule="evenodd" clip-rule="evenodd" d="M8.87421 19.725H18.3555L21.8531 15.35H30.9008L29.918 13.675C29.5422 13.025 29.2531 12.375 28.4148 12.375H10.3773C9.53905 12.375 8.87421 12.95 8.87421 13.675V19.725Z" fill="#E0ECC1"/>
<path fill-rule="evenodd" clip-rule="evenodd" d="M29.918 13.675C29.5422 13.025 29.2531 12.375 28.4149 12.375H10.3774H10.3484H10.3195H10.2906H10.2617H10.2328H10.2039H10.175H10.1461H10.1172H10.0883H10.0594H10.0305H10.0016H9.97267H9.94376H9.91486L9.74142 12.5L9.71251 12.525L9.68361 12.55L9.6547 12.575L9.62579 12.6L9.59689 12.625L9.56798 12.65L9.53907 12.6L9.51017 12.625L9.48126 12.65L9.45236 12.675L9.42345 12.7L9.39454 12.725L9.36564 12.75H9.33673L9.30783 12.775L9.27892 12.8L9.25001 12.825L9.22111 12.85L9.1922 12.875L9.16329 12.9L9.13439 12.925L9.10548 12.95L9.07657 12.975L9.04767 13H9.07657L9.04767 13.025L9.01876 13.05L8.98986 13.075L8.96095 13.1L8.93204 13.125L8.90314 13.15V13.175V13.2V13.225V13.25V13.275V13.3V13.325V13.35V13.375V13.4V13.425V13.45V13.475V13.5V13.525V13.55L29.918 13.675Z" fill="#2DB5AC"/>
<path fill-rule="evenodd" clip-rule="evenodd" d="M10.811 14.625H10.9844C11.3891 14.625 11.736 14.925 11.736 15.275V15.4C11.736 15.75 11.3891 16.05 10.9844 16.05H10.8399C10.4352 16.05 10.0883 15.75 10.0883 15.4V15.275C10.0594 14.9 10.4063 14.625 10.811 14.625Z" fill="#002535"/>
<path fill-rule="evenodd" clip-rule="evenodd" d="M13.557 14.625H13.7016C14.1063 14.625 14.4531 14.925 14.4531 15.275V15.4C14.4531 15.75 14.1063 16.05 13.7016 16.05H13.557C13.1524 16.05 12.8055 15.75 12.8055 15.4V15.275C12.8055 14.9 13.1524 14.625 13.557 14.625Z" fill="#002535"/>
<path fill-rule="evenodd" clip-rule="evenodd" d="M16.3321 14.625H16.4766C16.8813 14.625 17.2282 14.925 17.2282 15.275V15.4C17.2282 15.75 16.8813 16.05 16.4766 16.05H16.3321C15.9274 16.05 15.5805 15.75 15.5805 15.4V15.275C15.5805 14.9 15.8985 14.625 16.3321 14.625Z" fill="#002535"/>
<path fill-rule="evenodd" clip-rule="evenodd" d="M19.0781 14.625H19.2226C19.6273 14.625 19.9742 14.925 19.9742 15.275V15.4C19.9742 15.75 19.6273 16.05 19.2226 16.05H19.0781C18.6734 16.05 18.3265 15.75 18.3265 15.4V15.275C18.3265 14.9 18.6445 14.625 19.0781 14.625Z" fill="#002535"/>
<path fill-rule="evenodd" clip-rule="evenodd" d="M11.5336 12.375H16.6211V9.62495C16.6211 8.89995 15.9563 8.32495 15.118 8.32495H13.0368C12.1985 8.32495 11.5336 8.89995 11.5336 9.62495V12.375Z" fill="#E0ECC1"/>
<path fill-rule="evenodd" clip-rule="evenodd" d="M16.6211 9.62495C16.6211 8.89995 15.9563 8.32495 15.118 8.32495H13.0368C12.1985 8.32495 11.5336 8.89995 11.5336 9.62495H16.6211Z" fill="#2DB5AC"/>
<path fill-rule="evenodd" clip-rule="evenodd" d="M19.5406 12.375H27.0563V8.12495C27.0563 7.54995 26.5071 7.07495 25.8422 7.07495H20.7547C20.0899 7.07495 19.5406 7.54995 19.5406 8.12495V12.375Z" fill="#E0ECC1"/>
<path fill-rule="evenodd" clip-rule="evenodd" d="M27.0563 8.12495C27.0563 7.54995 26.5071 7.07495 25.8422 7.07495H20.7547C20.0899 7.07495 19.5406 7.54995 19.5406 8.12495H27.0563Z" fill="#2DB5AC"/>
<path fill-rule="evenodd" clip-rule="evenodd" d="M21.7954 8.8999H21.9399C22.3446 8.8999 22.6915 9.1999 22.6915 9.5499V9.6749C22.6915 10.0249 22.3446 10.3249 21.9399 10.3249H21.7954C21.3907 10.3249 21.0438 10.0249 21.0438 9.6749V9.5499C21.0438 9.1999 21.3907 8.8999 21.7954 8.8999Z" fill="#002535"/>
<path fill-rule="evenodd" clip-rule="evenodd" d="M24.6571 8.8999H24.8016C25.2063 8.8999 25.5532 9.1999 25.5532 9.5499V9.6749C25.5532 10.0249 25.2063 10.3249 24.8016 10.3249H24.6571C24.2524 10.3249 23.9055 10.0249 23.9055 9.6749V9.5499C23.9055 9.1999 24.2235 8.8999 24.6571 8.8999Z" fill="#002535"/>
<path fill-rule="evenodd" clip-rule="evenodd" d="M9.16328 24.9249H28.9352L30.0914 22.5999L4.33594 22.6249C5.34766 23.9999 7.13984 24.9249 9.16328 24.9249Z" fill="#219F97"/>
</svg>
