<svg width="31" height="24" viewBox="0 0 31 24" fill="none" xmlns="http://www.w3.org/2000/svg">
<path fill-rule="evenodd" clip-rule="evenodd" d="M14.4062 8.8001H23.5664C28.3515 8.8001 28.9804 11.5751 29.0351 12.0251C29.8008 12.0251 30.4297 12.6001 30.4297 13.3001C30.4297 14.0001 29.8008 14.5751 29.0351 14.5751H4.58982C0.515602 14.5751 0.570289 11.4751 0.570289 8.8001V6.7501C0.570289 6.5251 0.761695 6.3501 1.00779 6.3501H2.04685C2.29295 6.3501 2.42966 6.5501 2.48435 6.7501L3.16794 8.8001H14.4062Z" fill="#E0ECC1"/>
<path fill-rule="evenodd" clip-rule="evenodd" d="M27.6133 9.8501C28.2695 10.3251 28.625 10.8751 28.8164 11.3001H26.2187C25.8359 11.3001 25.5078 11.0001 25.5078 10.6501V10.4501C25.5078 10.1251 25.8086 9.8501 26.1641 9.8501H27.6133Z" fill="#002535"/>
<path fill-rule="evenodd" clip-rule="evenodd" d="M19.1914 8.80005L17.6055 1.87505C17.4414 1.17505 16.9492 0.550049 16.1563 0.550049H15.1719C14.3789 0.550049 13.7227 1.15005 13.7227 1.87505V8.80005H14.4062H19.1914Z" fill="#EE464A"/>
<path fill-rule="evenodd" clip-rule="evenodd" d="M5.35548 9.8501H5.49219C5.87501 9.8501 6.20313 10.1501 6.20313 10.5001V10.6251C6.20313 10.9751 5.87501 11.2751 5.49219 11.2751H5.35548C4.97266 11.2751 4.64454 10.9751 4.64454 10.6251V10.5001C4.61719 10.1501 4.94532 9.8501 5.35548 9.8501Z" fill="#002535"/>
<path fill-rule="evenodd" clip-rule="evenodd" d="M7.95313 9.8501H8.08984C8.47266 9.8501 8.80078 10.1501 8.80078 10.5001V10.6251C8.80078 10.9751 8.47266 11.2751 8.08984 11.2751H7.95313C7.57031 11.2751 7.24219 10.9751 7.24219 10.6251V10.5001C7.24219 10.1501 7.57031 9.8501 7.95313 9.8501Z" fill="#002535"/>
<path fill-rule="evenodd" clip-rule="evenodd" d="M10.5508 9.8501H10.6875C11.0703 9.8501 11.3984 10.1501 11.3984 10.5001V10.6251C11.3984 10.9751 11.0703 11.2751 10.6875 11.2751H10.5508C10.168 11.2751 9.83984 10.9751 9.83984 10.6251V10.5001C9.83984 10.1501 10.168 9.8501 10.5508 9.8501Z" fill="#002535"/>
<path fill-rule="evenodd" clip-rule="evenodd" d="M13.1758 9.8501H13.3125C13.6953 9.8501 14.0234 10.1501 14.0234 10.5001V10.6251C14.0234 10.9751 13.6953 11.2751 13.3125 11.2751H13.1758C12.793 11.2751 12.4649 10.9751 12.4649 10.6251V10.5001C12.4375 10.1501 12.7656 9.8501 13.1758 9.8501Z" fill="#002535"/>
<path fill-rule="evenodd" clip-rule="evenodd" d="M15.7734 9.8501H15.9102C16.293 9.8501 16.6211 10.1501 16.6211 10.5001V10.6251C16.6211 10.9751 16.293 11.2751 15.9102 11.2751H15.7734C15.3906 11.2751 15.0625 10.9751 15.0625 10.6251V10.5001C15.0352 10.1501 15.3633 9.8501 15.7734 9.8501Z" fill="#002535"/>
<path fill-rule="evenodd" clip-rule="evenodd" d="M18.3711 9.8501H18.5078C18.8906 9.8501 19.2187 10.1501 19.2187 10.5001V10.6251C19.2187 10.9751 18.8906 11.2751 18.5078 11.2751H18.3711C17.9883 11.2751 17.6602 10.9751 17.6602 10.6251V10.5001C17.6602 10.1501 17.9883 9.8501 18.3711 9.8501Z" fill="#002535"/>
<path fill-rule="evenodd" clip-rule="evenodd" d="M20.9687 9.8501H21.1055C21.4883 9.8501 21.8164 10.1501 21.8164 10.5001V10.6251C21.8164 10.9751 21.4883 11.2751 21.1055 11.2751H20.9687C20.5859 11.2751 20.2578 10.9751 20.2578 10.6251V10.5001C20.2578 10.1501 20.5859 9.8501 20.9687 9.8501Z" fill="#002535"/>
<path fill-rule="evenodd" clip-rule="evenodd" d="M23.5938 9.8501H23.7305C24.1133 9.8501 24.4414 10.1501 24.4414 10.5001V10.6251C24.4414 10.9751 24.1133 11.2751 23.7305 11.2751H23.5938C23.2109 11.2751 22.8828 10.9751 22.8828 10.6251V10.5001C22.8555 10.1501 23.1836 9.8501 23.5938 9.8501Z" fill="#002535"/>
<path fill-rule="evenodd" clip-rule="evenodd" d="M15.1718 12H18.207C19 12 19.8203 12.6 19.6562 13.325L17.6328 22.125C17.4687 22.825 16.9765 23.45 16.1836 23.45H15.1992C14.4062 23.45 13.75 22.85 13.75 22.125V13.325C13.7226 12.6 14.3789 12 15.1718 12Z" fill="#EE464A"/>
<path fill-rule="evenodd" clip-rule="evenodd" d="M15.1719 23.45V14.575V13.25V12C14.4062 12 13.7773 12.55 13.7227 13.25C13.7227 13.275 13.7227 13.3 13.7227 13.3V14.575V22.125C13.7227 22.85 14.3789 23.45 15.1719 23.45Z" fill="#E53839"/>
<path fill-rule="evenodd" clip-rule="evenodd" d="M4.58984 14.575H13.7227V13.3C13.7227 13.275 13.7227 13.25 13.7227 13.25L1.39062 13.275C1.96484 14.075 2.94922 14.575 4.58984 14.575Z" fill="#E53839"/>
<path fill-rule="evenodd" clip-rule="evenodd" d="M19.6289 13.3251L19.3281 14.5751H29.0352C29.8008 14.5751 30.4297 14.0001 30.4297 13.3001C30.4297 12.6001 29.8008 12.0251 29.0352 12.0251L27.7227 13.2251L19.6289 13.2501C19.6289 13.2751 19.6289 13.3001 19.6289 13.3251Z" fill="#E53839"/>
<path fill-rule="evenodd" clip-rule="evenodd" d="M15.1719 8.80005V0.550049C14.3789 0.550049 13.7227 1.15005 13.7227 1.87505V8.80005H14.4062H15.1719Z" fill="#E53839"/>
</svg>
