<svg viewBox="0 0 48 48" xml:space="preserve" xmlns="http://www.w3.org/2000/svg"><path d="M22.915 14.823c-.519.616-.777 1.453-.777 2.51 0 1.688.663 2.532 1.988 2.532 1.397 0 2.16-1.061 2.292-3.184l.131-2.597a5.62 5.62 0 0 0-1.467-.185c-.928 0-1.649.309-2.167.924z" fill="#3888ff" class="fill-000000"></path><path d="M0 5v36h48V5H0zm16.977 7.569c.812-1.475 1.937-2.602 3.375-3.385 1.437-.782 3.065-1.173 4.882-1.173 1.571 0 2.973.326 4.201.978a6.946 6.946 0 0 1 2.855 2.788c.678 1.206 1.018 2.598 1.018 4.177 0 1.036-.165 1.983-.489 2.84-.326.859-.786 1.527-1.374 2.006a3.161 3.161 0 0 1-2.049.716c-.572 0-1.069-.152-1.489-.456s-.702-.717-.846-1.239h-.132c-.354.565-.794.989-1.313 1.271a3.645 3.645 0 0 1-1.761.423c-1.181 0-2.109-.38-2.786-1.141s-1.016-1.79-1.016-3.086c0-1.492.449-2.704 1.347-3.634.898-.931 2.104-1.396 3.618-1.396.551 0 1.162.049 1.829.146.672.099 1.267.233 1.789.408l-.239 5.052v.261c0 1.159.376 1.739 1.129 1.739.574 0 1.029-.37 1.364-1.108.337-.74.505-1.68.505-2.825 0-1.239-.253-2.327-.759-3.265a5.288 5.288 0 0 0-2.162-2.168c-.937-.507-2.007-.76-3.217-.76-1.543 0-2.885.319-4.025.956a6.35 6.35 0 0 0-2.613 2.732c-.601 1.184-.901 2.559-.901 4.123 0 2.101.561 3.716 1.684 4.846 1.123 1.129 2.734 1.694 4.834 1.694 1.601 0 3.271-.326 5.01-.977v1.782c-1.522.622-3.178.935-4.966.935-2.68 0-4.77-.723-6.27-2.168-1.5-1.445-2.249-3.46-2.249-6.046-.001-1.889.405-3.572 1.216-5.046zM44 37H4V22.917l20 7.167 20-7.167V37z" fill="#3888ff" class="fill-000000"></path></svg>