<svg viewBox="0 0 48 48" xml:space="preserve" xmlns="http://www.w3.org/2000/svg"><path d="M40.188 3.124C34.29-1.69 25.607-.805 20.796 5.096c-3.569 4.378-3.989 10.285-1.565 15.007l-2.536 3.11 1.637 1.335c-2.74 3.155-2.131 5.543-2.131 5.543l-2.741.432.346 2.505-2.524.169.074 2.84-5.192 3.433-.306 3.309-3.124.899.896 4.286 4.378.017 15.598-19.129 1.636 1.332 2.536-3.109c5.114 1.425 10.818-.178 14.386-4.554 4.81-5.904 3.93-14.588-1.976-19.397zm-2.89 10.091a4.131 4.131 0 0 1-5.815.593 4.131 4.131 0 0 1-.592-5.818 4.134 4.134 0 1 1 6.407 5.225z" fill="#3888ff" class="fill-241f20"></path></svg>