<svg width="30" height="30" viewBox="0 0 30 30" fill="none" xmlns="http://www.w3.org/2000/svg">
<path d="M15 27.5C21.9035 27.5 27.5 21.9035 27.5 15C27.5 8.09644 21.9035 2.5 15 2.5C8.09644 2.5 2.5 8.09644 2.5 15C2.5 21.9035 8.09644 27.5 15 27.5Z" stroke="#1F86FF" stroke-width="1.5" stroke-linecap="round" stroke-linejoin="round"/>
<path d="M18.75 10.625C17.8937 9.76876 16.3859 9.17319 15 9.1359M11.25 18.75C12.0556 19.8241 13.5535 20.4368 15 20.4888M15 9.1359C13.3511 9.09153 11.875 9.83747 11.875 11.875C11.875 15.625 18.75 13.75 18.75 17.5C18.75 19.6387 16.9203 20.5578 15 20.4888M15 9.1359V6.875M15 20.4888V23.125" stroke="#1F86FF" stroke-width="1.5" stroke-linecap="round" stroke-linejoin="round"/>
</svg>
