<svg width="30" height="33" viewBox="0 0 30 33" fill="none" xmlns="http://www.w3.org/2000/svg">
<path d="M15 30.5C21.9035 30.5 27.5 24.9035 27.5 18C27.5 11.0964 21.9035 5.5 15 5.5C8.09644 5.5 2.5 11.0964 2.5 18C2.5 24.9035 8.09644 30.5 15 30.5Z" stroke="#1F86FF" stroke-width="1.5" stroke-linecap="round" stroke-linejoin="round"/>
<path d="M18.75 13.625C17.8937 12.7688 16.3859 12.1732 15 12.1359M11.25 21.75C12.0556 22.8241 13.5535 23.4368 15 23.4888M15 12.1359C13.3511 12.0915 11.875 12.8375 11.875 14.875C11.875 18.625 18.75 16.75 18.75 20.5C18.75 22.6387 16.9203 23.5578 15 23.4888M15 12.1359V9.875M15 23.4888V26.125" stroke="#1F86FF" stroke-width="1.5" stroke-linecap="round" stroke-linejoin="round"/>
<circle cx="24" cy="6" r="6" fill="#1F86FF"/>
<path d="M24 3V9" stroke="white" stroke-width="1.5" stroke-linecap="round"/>
<path d="M21 5.8125H27" stroke="white" stroke-width="1.5" stroke-linecap="round"/>
</svg>
